<svg width="1440" height="304" viewBox="0 0 1440 304" fill="none" xmlns="http://www.w3.org/2000/svg">
<g clip-path="url(#clip0_1268:37461)">
<path fill-rule="evenodd" clip-rule="evenodd" d="M-68.7935 88.0847C24.5061 88.0847 119.021 83.6965 212.05 90.245C291.105 95.8484 368.472 114.009 447.122 122.245C508.557 128.659 570.059 127.983 631.763 131.021C695.763 134.127 759.628 140.068 823.763 140.405C934.683 141.013 1029.47 97.8062 1133.16 97.3336C1170.9 97.1311 1207.97 101.519 1245.5 103.275C1310.24 106.313 1425.01 102.194 1482.33 122.988C1493.67 127.106 1501.77 135.207 1507.38 144.118C1528.1 177.199 1532.08 219.46 1527.7 255.983C1525.06 278.127 1521.55 308.102 1502.24 325.114C1454.78 366.836 1281.08 351.916 1218.36 349.351C1123.04 345.435 1028.25 336.253 933.063 332.068C841.654 328.017 749.637 329.03 658.16 328.152C406.481 325.722 153.384 336.253 -95.8652 300.54L-68.7935 88.0847Z" fill="#265353"/>
<path fill-rule="evenodd" clip-rule="evenodd" d="M-66.8354 138.38C-30.1096 138.38 7.15617 131.967 43.4769 128.591C107.612 122.583 172.219 120.422 236.49 126.228C287.325 130.819 337.215 142.228 387.241 150.464C518.549 172.068 657.485 197.789 792.034 194.886C882.971 192.929 969.992 175.713 1060.12 169.165C1165.64 161.469 1272.3 163.899 1378.16 162.886C1424.81 162.414 1482.67 152.962 1527.9 163.021C1598.65 178.684 1623.22 367.173 1585.82 410.65C1579.81 417.604 1571.51 422.802 1561.25 424.287C1515.75 430.701 1464.37 420.439 1418.73 417.401C1342.45 412.27 1265.82 410.313 1189.4 408.692C1106.36 406.87 1023.32 409.908 940.287 408.557C849.08 407.005 757.063 398.836 666.667 389.452C573.232 379.798 481.148 364.473 389.333 347.663C334.11 337.604 279.089 324.777 222.852 318.633C122.194 307.629 19.173 314.515 -82.0928 314.515L-66.8354 138.38Z" fill="#1D4345"/>
<path fill-rule="evenodd" clip-rule="evenodd" d="M-53.5361 173.014C-43.0045 173.014 -26.0593 163.292 -15.4602 160.997C19.4428 153.436 54.8183 152.49 90.7339 154.651C196.928 161.199 296.439 188.136 400.337 204.609C473.721 216.288 548.658 218.246 623.19 218.651C716.152 219.123 807.696 213.182 899.915 203.731C1000.57 193.402 1097.72 179.495 1199.73 183.343C1276.15 186.246 1553.21 208.862 1572.32 279.41C1599.19 378.583 1310.18 348.541 1252.66 342.938C1118.92 329.908 983.966 317.554 849.012 320.659C757.873 322.752 667.476 335.647 576.607 341.452C382.987 353.807 184.911 358.398 -7.76398 335.849L-53.5361 173.014Z" fill="#142A31"/>
<rect x="114.683" y="93.8711" width="15.3309" height="72.2743" fill="#142A31"/>
<rect x="114.723" y="67.1484" width="15.3309" height="72.2743" fill="#142A31"/>
<path d="M120.453 57.4492C121.223 56.1159 123.148 56.1159 123.918 57.4492L164.078 127.009C164.848 128.342 163.885 130.009 162.346 130.009H82.0253C80.4857 130.009 79.5234 128.342 80.2933 127.009L120.453 57.4492Z" fill="#142A31"/>
<path d="M120.494 28.9775C121.264 27.6442 123.188 27.6442 123.958 28.9775L157.48 87.0388C158.25 88.3722 157.287 90.0388 155.748 90.0388H88.7044C87.1648 90.0388 86.2025 88.3722 86.9723 87.0388L120.494 28.9775Z" fill="#142A31"/>
<path d="M136.443 50.374H108.017L103.823 57.364H140.637L136.443 50.374Z" fill="#142A31"/>
<path d="M142.754 89.9834H101.674L97.7656 96.5074H146.695L142.754 89.9834Z" fill="#142A31"/>
<path d="M120.983 2.69531C121.752 1.36198 123.677 1.36198 124.447 2.69531L150.382 47.6158C151.151 48.9492 150.189 50.6158 148.649 50.6158H96.7797C95.2401 50.6158 94.2779 48.9492 95.0477 47.6158L120.983 2.69531Z" fill="#142A31"/>
<rect x="155.419" y="113.552" width="11.192" height="52.7624" fill="#142A31"/>
<rect x="155.445" y="94.043" width="11.192" height="52.7624" fill="#142A31"/>
<path d="M159.164 87.7715C159.934 86.4381 161.858 86.4382 162.628 87.7715L191.011 136.932C191.781 138.266 190.818 139.932 189.279 139.932H132.513C130.973 139.932 130.011 138.266 130.781 136.932L159.164 87.7715Z" fill="#142A31"/>
<path d="M159.193 66.9863C159.963 65.653 161.887 65.653 162.657 66.9863L186.194 107.753C186.963 109.086 186.001 110.753 184.462 110.753H137.388C135.849 110.753 134.886 109.086 135.656 107.753L159.193 66.9863Z" fill="#142A31"/>
<path d="M171.306 81.7969H150.554L147.492 86.8998H174.367L171.306 81.7969Z" fill="#142A31"/>
<path d="M175.91 110.713H145.92L143.067 115.476H178.788L175.91 110.713Z" fill="#142A31"/>
<path d="M159.549 47.7998C160.319 46.4665 162.244 46.4665 163.013 47.7998L181.011 78.9733C181.781 80.3067 180.819 81.9733 179.279 81.9733H143.283C141.744 81.9733 140.781 80.3067 141.551 78.9733L159.549 47.7998Z" fill="#142A31"/>
<rect x="1219.97" y="123.897" width="13.1693" height="62.084" fill="#142A31"/>
<rect x="1220" y="100.942" width="13.1693" height="62.084" fill="#142A31"/>
<path d="M1224.68 93.0342C1225.45 91.7009 1227.38 91.7008 1228.15 93.0342L1262.15 151.94C1262.92 153.274 1261.96 154.94 1260.42 154.94H1192.4C1190.86 154.94 1189.9 153.274 1190.67 151.94L1224.68 93.0342Z" fill="#142A31"/>
<path d="M1224.72 68.5762C1225.49 67.2428 1227.41 67.2428 1228.18 68.5762L1256.49 117.605C1257.26 118.939 1256.29 120.605 1254.76 120.605H1198.14C1196.6 120.605 1195.64 118.939 1196.41 117.605L1224.72 68.5762Z" fill="#142A31"/>
<path d="M1238.66 86.5332H1214.24L1210.64 92.5376H1242.26L1238.66 86.5332Z" fill="#142A31"/>
<path d="M1244.08 120.558H1208.79L1205.44 126.162H1247.47L1244.08 120.558Z" fill="#142A31"/>
<path d="M1225.14 46C1225.9 44.6667 1227.83 44.6667 1228.6 46L1250.39 83.741C1251.16 85.0744 1250.2 86.741 1248.66 86.741H1205.08C1203.54 86.741 1202.58 85.0744 1203.35 83.741L1225.14 46Z" fill="#142A31"/>
<rect x="1254.96" y="142.254" width="9.61402" height="49.2461" fill="#142A31"/>
<rect x="1254.98" y="124.045" width="9.61402" height="49.2461" fill="#142A31"/>
<path d="M1257.93 119.081C1258.7 117.748 1260.63 117.748 1261.4 119.081L1285.29 160.464C1286.06 161.798 1285.1 163.464 1283.56 163.464H1235.77C1234.23 163.464 1233.27 161.798 1234.04 160.464L1257.93 119.081Z" fill="#142A31"/>
<path d="M1257.96 101.227C1258.73 99.8932 1260.65 99.8932 1261.42 101.227L1281.15 135.399C1281.92 136.733 1280.96 138.399 1279.42 138.399H1239.96C1238.42 138.399 1237.46 136.733 1238.23 135.399L1257.96 101.227Z" fill="#142A31"/>
<path d="M1268.61 113.525H1250.78L1248.15 117.909H1271.24L1268.61 113.525Z" fill="#142A31"/>
<path d="M1272.56 138.365H1246.8L1244.35 142.456H1275.03L1272.56 138.365Z" fill="#142A31"/>
<path d="M1258.27 84.7451C1259.04 83.4118 1260.96 83.4118 1261.73 84.7451L1276.7 110.677C1277.47 112.011 1276.51 113.677 1274.97 113.677H1245.03C1243.49 113.677 1242.52 112.011 1243.29 110.677L1258.27 84.7451Z" fill="#142A31"/>
<rect x="634.446" y="176.488" width="10.2476" height="48.3101" fill="#142A31"/>
<rect x="634.476" y="158.625" width="10.2476" height="48.3101" fill="#142A31"/>
<path d="M637.73 153.136C638.499 151.802 640.424 151.802 641.194 153.136L666.889 197.642C667.659 198.975 666.697 200.642 665.157 200.642H613.766C612.227 200.642 611.264 198.975 612.034 197.642L637.73 153.136Z" fill="#142A31"/>
<path d="M637.757 134.104C638.527 132.771 640.452 132.771 641.221 134.104L662.48 170.925C663.249 172.258 662.287 173.925 660.747 173.925H618.231C616.691 173.925 615.729 172.258 616.499 170.925L637.757 134.104Z" fill="#142A31"/>
<path d="M648.991 147.412H629.991L627.188 152.084H651.795L648.991 147.412Z" fill="#142A31"/>
<path d="M653.21 173.888H625.751L623.139 178.248H655.845L653.21 173.888Z" fill="#142A31"/>
<path d="M638.083 116.537C638.853 115.204 640.777 115.204 641.547 116.537L657.734 144.574C658.504 145.907 657.542 147.574 656.002 147.574H623.628C622.089 147.574 621.126 145.907 621.896 144.574L638.083 116.537Z" fill="#142A31"/>
<rect x="370.985" y="127.408" width="5.10238" height="24.0541" fill="#1D4345"/>
<rect x="371" y="118.515" width="5.10238" height="24.0541" fill="#1D4345"/>
<path d="M384.574 128.242C384.574 134.535 379.472 139.637 373.179 139.637C366.886 139.637 361.784 134.535 361.784 128.242C361.784 121.949 366.886 109.251 373.179 109.251C379.472 109.251 384.574 121.949 384.574 128.242Z" fill="#1D4345"/>
<path fill-rule="evenodd" clip-rule="evenodd" d="M384.229 125.571C383.152 130.745 378.567 134.632 373.073 134.632C367.58 134.632 362.995 130.745 361.918 125.571C361.761 126.539 361.679 127.442 361.679 128.242C361.679 134.535 366.78 139.637 373.073 139.637C379.367 139.637 384.468 134.535 384.468 128.242C384.468 127.442 384.386 126.539 384.229 125.571Z" fill="#1D4345"/>
<path d="M382.71 113.653C382.71 118.764 378.485 122.908 373.273 122.908C368.062 122.908 363.837 118.764 363.837 113.653C363.837 108.541 368.062 98.2275 373.273 98.2275C378.485 98.2275 382.71 108.541 382.71 113.653Z" fill="#1D4345"/>
<rect x="391.952" y="121.288" width="6.69413" height="31.5581" fill="#1D4345"/>
<rect x="391.972" y="109.62" width="6.69413" height="31.5581" fill="#1D4345"/>
<path d="M409.782 122.383C409.782 130.639 403.089 137.332 394.832 137.332C386.576 137.332 379.883 130.639 379.883 122.383C379.883 114.126 386.576 97.4668 394.832 97.4668C403.089 97.4668 409.782 114.126 409.782 122.383Z" fill="#1D4345"/>
<path fill-rule="evenodd" clip-rule="evenodd" d="M409.329 118.878C407.916 125.666 401.9 130.765 394.694 130.765C387.487 130.765 381.471 125.665 380.058 118.878C379.852 120.148 379.744 121.333 379.744 122.382C379.744 130.639 386.437 137.332 394.694 137.332C402.95 137.332 409.643 130.639 409.643 122.382C409.643 121.333 409.535 120.148 409.329 118.878Z" fill="#1D4345"/>
<path d="M407.335 103.242C407.335 109.948 401.792 115.384 394.955 115.384C388.117 115.384 382.574 109.948 382.574 103.242C382.574 96.536 388.117 83.0049 394.955 83.0049C401.792 83.0049 407.335 96.536 407.335 103.242Z" fill="#1D4345"/>
<rect width="5.10238" height="24.0541" transform="matrix(-1 0 0 1 964.193 158.727)" fill="#1D4345"/>
<rect width="5.10238" height="24.0541" transform="matrix(-1 0 0 1 964.178 149.833)" fill="#1D4345"/>
<path d="M950.604 159.561C950.604 165.854 955.706 170.955 961.999 170.955C968.292 170.955 973.394 165.854 973.394 159.561C973.394 153.267 968.292 140.569 961.999 140.569C955.706 140.569 950.604 153.267 950.604 159.561Z" fill="#1D4345"/>
<path fill-rule="evenodd" clip-rule="evenodd" d="M950.949 156.89C952.026 162.063 956.611 165.951 962.104 165.951C967.598 165.951 972.183 162.063 973.26 156.89C973.417 157.857 973.499 158.761 973.499 159.56C973.499 165.854 968.397 170.955 962.104 170.955C955.811 170.955 950.71 165.854 950.71 159.56C950.71 158.761 950.792 157.857 950.949 156.89Z" fill="#1D4345"/>
<path d="M952.468 144.971C952.468 150.082 956.693 154.226 961.905 154.226C967.116 154.226 971.341 150.082 971.341 144.971C971.341 139.86 967.116 129.546 961.905 129.546C956.693 129.546 952.468 139.86 952.468 144.971Z" fill="#1D4345"/>
<rect width="6.69413" height="31.5581" transform="matrix(-1 0 0 1 941.226 154.29)" fill="#1D4345"/>
<rect width="6.69413" height="31.5581" transform="matrix(-1 0 0 1 941.206 142.622)" fill="#1D4345"/>
<path d="M923.396 149.62C923.396 157.876 930.09 164.569 938.346 164.569C946.602 164.569 953.295 157.876 953.295 149.62C953.295 141.364 946.602 124.704 938.346 124.704C930.09 124.704 923.396 141.364 923.396 149.62Z" fill="#1D4345"/>
<path fill-rule="evenodd" clip-rule="evenodd" d="M923.849 146.115C925.262 152.903 931.278 158.002 938.485 158.002C945.691 158.002 951.707 152.903 953.12 146.115C953.326 147.385 953.434 148.57 953.434 149.62C953.434 157.876 946.741 164.569 938.485 164.569C930.228 164.569 923.535 157.876 923.535 149.62C923.535 148.57 923.643 147.385 923.849 146.115Z" fill="#1D4345"/>
<path d="M925.843 130.479C925.843 137.185 931.386 142.622 938.224 142.622C945.061 142.622 950.604 137.185 950.604 130.479C950.604 123.773 945.061 110.242 938.224 110.242C931.386 110.242 925.843 123.773 925.843 130.479Z" fill="#1D4345"/>
</g>
<defs>
<clipPath id="clip0_1268:37461">
<rect width="1440" height="304" fill="white"/>
</clipPath>
</defs>
</svg>
